{
	"asset":{
		"generator":"Khronos glTF Blender I/O v3.6.27",
		"version":"2.0"
	},
	"extensionsUsed":[
		"KHR_materials_specular",
		"KHR_materials_ior"
	],
	"scene":0,
	"scenes":[
		{
			"name":"Scene",
			"nodes":[
				0,
				1,
				2,
				3,
				4,
				5,
				6,
				7,
				8
			]
		}
	],
	"nodes":[
		{
			"mesh":0,
			"name":"Cube.003",
			"rotation":[
				-0.009760957211256027,
				0.0037156641483306885,
				-0.006862988695502281,
				0.9999219179153442
			],
			"scale":[
				1.4847279787063599,
				1.0887781381607056,
				0.20924536883831024
			],
			"translation":[
				-1.4359512329101562,
				2.7000346183776855,
				-0.5283272862434387
			]
		},
		{
			"mesh":1,
			"name":"Cube.001",
			"rotation":[
				-0.009760957211256027,
				0.0037156641483306885,
				-0.006862988695502281,
				0.9999219179153442
			],
			"scale":[
				1.4847279787063599,
				1.0887781381607056,
				0.20924536883831024
			],
			"translation":[
				-1.434726595878601,
				2.8124399185180664,
				-0.5282872915267944
			]
		},
		{
			"mesh":2,
			"name":"Cube.002",
			"rotation":[
				-0.009760957211256027,
				0.0037156641483306885,
				-0.006862988695502281,
				0.9999219179153442
			],
			"scale":[
				1.4847279787063599,
				1.0887781381607056,
				0.20924536883831024
			],
			"translation":[
				-1.4421709775924683,
				2.1291916370391846,
				-0.5285304188728333
			]
		},
		{
			"mesh":3,
			"name":"Cube.004",
			"rotation":[
				0.9999410510063171,
				0.001139514846727252,
				0.004938102327287197,
				0.009611324407160282
			],
			"scale":[
				-1.3720444440841675,
				-1.0061451196670532,
				-0.1933647096157074
			],
			"translation":[
				0.2075423002243042,
				1.5736157894134521,
				0.5945737361907959
			]
		},
		{
			"mesh":4,
			"name":"Cube.005",
			"rotation":[
				0.9999410510063171,
				0.001139514846727252,
				0.004938102327287197,
				0.009611324407160282
			],
			"scale":[
				-1.3720444440841675,
				-1.0061451196670532,
				-0.1933647096157074
			],
			"translation":[
				0.2075967788696289,
				1.6774959564208984,
				0.5946465730667114
			]
		},
		{
			"mesh":5,
			"name":"Cube.006",
			"rotation":[
				0.9999410510063171,
				0.001139514846727252,
				0.004938102327287197,
				0.009611324407160282
			],
			"scale":[
				-1.3720444440841675,
				-1.0061451196670532,
				-0.1933647096157074
			],
			"translation":[
				0.20726537704467773,
				1.0460659265518188,
				0.594203770160675
			]
		},
		{
			"mesh":6,
			"name":"Cube.007",
			"rotation":[
				-0.009760955348610878,
				0.0037156641483306885,
				-0.006862988229840994,
				0.9999219179153442
			],
			"scale":[
				1.1399117708206177,
				0.8359183073043823,
				0.16064980626106262
			],
			"translation":[
				-1.1024420261383057,
				-0.09491682052612305,
				0.09926798939704895
			]
		},
		{
			"mesh":7,
			"name":"Cube.008",
			"rotation":[
				-0.009760955348610878,
				0.0037156641483306885,
				-0.006862988229840994,
				0.9999219179153442
			],
			"scale":[
				1.1399117708206177,
				0.8359183073043823,
				0.16064980626106262
			],
			"translation":[
				-1.101501703262329,
				-0.008616805076599121,
				0.09929870069026947
			]
		},
		{
			"mesh":8,
			"name":"Cube.009",
			"rotation":[
				-0.009760955348610878,
				0.0037156641483306885,
				-0.006862988229840994,
				0.9999219179153442
			],
			"scale":[
				1.1399117708206177,
				0.8359183073043823,
				0.16064980626106262
			],
			"translation":[
				-1.1072171926498413,
				-0.5331861972808838,
				0.09911207854747772
			]
		}
	],
	"materials":[
		{
			"doubleSided":true,
			"extensions":{
				"KHR_materials_specular":{
					"specularColorFactor":[
						0.8772095355327064,
						0.8772095355327064,
						0.8772095355327064
					]
				},
				"KHR_materials_ior":{
					"ior":1.4500000476837158
				}
			},
			"name":"1",
			"pbrMetallicRoughness":{
				"baseColorFactor":[
					0.23183324933052063,
					0.7507811784744263,
					1,
					1
				],
				"metallicFactor":0,
				"roughnessFactor":0.4000000059604645
			}
		},
		{
			"doubleSided":true,
			"name":"Material.003",
			"pbrMetallicRoughness":{
				"baseColorFactor":[
					0.800000011920929,
					0.800000011920929,
					0.800000011920929,
					1
				],
				"metallicFactor":0,
				"roughnessFactor":0.5
			}
		},
		{
			"doubleSided":true,
			"extensions":{
				"KHR_materials_specular":{
					"specularColorFactor":[
						0.8772095355327064,
						0.8772095355327064,
						0.8772095355327064
					]
				},
				"KHR_materials_ior":{
					"ior":1.4500000476837158
				}
			},
			"name":"1.001",
			"pbrMetallicRoughness":{
				"baseColorFactor":[
					1,
					0.11976800113916397,
					0.2649747133255005,
					1
				],
				"metallicFactor":0,
				"roughnessFactor":0.4000000059604645
			}
		},
		{
			"doubleSided":true,
			"extensions":{
				"KHR_materials_specular":{
					"specularColorFactor":[
						0.8772095355327064,
						0.8772095355327064,
						0.8772095355327064
					]
				},
				"KHR_materials_ior":{
					"ior":1.4500000476837158
				}
			},
			"name":"1.003",
			"pbrMetallicRoughness":{
				"baseColorFactor":[
					1,
					0.3207816481590271,
					0.06824960559606552,
					1
				],
				"metallicFactor":0,
				"roughnessFactor":0.4000000059604645
			}
		}
	],
	"meshes":[
		{
			"name":"Cube.028",
			"primitives":[
				{
					"attributes":{
						"POSITION":0,
						"NORMAL":1,
						"TEXCOORD_0":2
					},
					"indices":3,
					"material":0
				}
			]
		},
		{
			"name":"Cube.001",
			"primitives":[
				{
					"attributes":{
						"POSITION":4,
						"NORMAL":5,
						"TEXCOORD_0":6
					},
					"indices":7,
					"material":1
				}
			]
		},
		{
			"name":"Cube.002",
			"primitives":[
				{
					"attributes":{
						"POSITION":8,
						"NORMAL":9,
						"TEXCOORD_0":10
					},
					"indices":7,
					"material":1
				}
			]
		},
		{
			"name":"Cube.003",
			"primitives":[
				{
					"attributes":{
						"POSITION":11,
						"NORMAL":12,
						"TEXCOORD_0":13
					},
					"indices":3,
					"material":2
				}
			]
		},
		{
			"name":"Cube.004",
			"primitives":[
				{
					"attributes":{
						"POSITION":14,
						"NORMAL":15,
						"TEXCOORD_0":16
					},
					"indices":7,
					"material":1
				}
			]
		},
		{
			"name":"Cube.005",
			"primitives":[
				{
					"attributes":{
						"POSITION":17,
						"NORMAL":18,
						"TEXCOORD_0":19
					},
					"indices":7,
					"material":1
				}
			]
		},
		{
			"name":"Cube.006",
			"primitives":[
				{
					"attributes":{
						"POSITION":20,
						"NORMAL":21,
						"TEXCOORD_0":22
					},
					"indices":3,
					"material":3
				}
			]
		},
		{
			"name":"Cube.007",
			"primitives":[
				{
					"attributes":{
						"POSITION":23,
						"NORMAL":24,
						"TEXCOORD_0":25
					},
					"indices":7,
					"material":1
				}
			]
		},
		{
			"name":"Cube.008",
			"primitives":[
				{
					"attributes":{
						"POSITION":26,
						"NORMAL":27,
						"TEXCOORD_0":28
					},
					"indices":7,
					"material":1
				}
			]
		}
	],
	"accessors":[
		{
			"bufferView":0,
			"componentType":5126,
			"count":131,
			"max":[
				0.9999999403953552,
				1.2838183641433716,
				1.3426637649536133
			],
			"min":[
				-1,
				-1.2941476106643677,
				-1.8272291421890259
			],
			"type":"VEC3"
		},
		{
			"bufferView":1,
			"componentType":5126,
			"count":131,
			"type":"VEC3"
		},
		{
			"bufferView":2,
			"componentType":5126,
			"count":131,
			"type":"VEC2"
		},
		{
			"bufferView":3,
			"componentType":5123,
			"count":576,
			"type":"SCALAR"
		},
		{
			"bufferView":4,
			"componentType":5126,
			"count":42,
			"max":[
				0.8523563742637634,
				0.7859534025192261,
				3.112776756286621
			],
			"min":[
				-0.8512213826179504,
				0.28485411405563354,
				0.9185820817947388
			],
			"type":"VEC3"
		},
		{
			"bufferView":5,
			"componentType":5126,
			"count":42,
			"type":"VEC3"
		},
		{
			"bufferView":6,
			"componentType":5126,
			"count":42,
			"type":"VEC2"
		},
		{
			"bufferView":7,
			"componentType":5123,
			"count":240,
			"type":"SCALAR"
		},
		{
			"bufferView":8,
			"componentType":5126,
			"count":42,
			"max":[
				0.4441252052783966,
				0.7859534025192261,
				3.112776756286621
			],
			"min":[
				-0.8512213826179504,
				0.2833447754383087,
				0.8902329802513123
			],
			"type":"VEC3"
		},
		{
			"bufferView":9,
			"componentType":5126,
			"count":42,
			"type":"VEC3"
		},
		{
			"bufferView":10,
			"componentType":5126,
			"count":42,
			"type":"VEC2"
		},
		{
			"bufferView":11,
			"componentType":5126,
			"count":131,
			"max":[
				0.9999999403953552,
				1.2838183641433716,
				1.3426637649536133
			],
			"min":[
				-1,
				-1.2941476106643677,
				-1.8272291421890259
			],
			"type":"VEC3"
		},
		{
			"bufferView":12,
			"componentType":5126,
			"count":131,
			"type":"VEC3"
		},
		{
			"bufferView":13,
			"componentType":5126,
			"count":131,
			"type":"VEC2"
		},
		{
			"bufferView":14,
			"componentType":5126,
			"count":42,
			"max":[
				0.8523563742637634,
				0.7859534025192261,
				3.112776756286621
			],
			"min":[
				-0.8512213826179504,
				0.28485411405563354,
				0.9185820817947388
			],
			"type":"VEC3"
		},
		{
			"bufferView":15,
			"componentType":5126,
			"count":42,
			"type":"VEC3"
		},
		{
			"bufferView":16,
			"componentType":5126,
			"count":42,
			"type":"VEC2"
		},
		{
			"bufferView":17,
			"componentType":5126,
			"count":42,
			"max":[
				0.4441252052783966,
				0.7859534025192261,
				3.112776756286621
			],
			"min":[
				-0.8512213826179504,
				0.2833447754383087,
				0.8902329802513123
			],
			"type":"VEC3"
		},
		{
			"bufferView":18,
			"componentType":5126,
			"count":42,
			"type":"VEC3"
		},
		{
			"bufferView":19,
			"componentType":5126,
			"count":42,
			"type":"VEC2"
		},
		{
			"bufferView":20,
			"componentType":5126,
			"count":131,
			"max":[
				0.9999999403953552,
				1.2838183641433716,
				1.3426637649536133
			],
			"min":[
				-1,
				-1.2941476106643677,
				-1.8272291421890259
			],
			"type":"VEC3"
		},
		{
			"bufferView":21,
			"componentType":5126,
			"count":131,
			"type":"VEC3"
		},
		{
			"bufferView":22,
			"componentType":5126,
			"count":131,
			"type":"VEC2"
		},
		{
			"bufferView":23,
			"componentType":5126,
			"count":42,
			"max":[
				0.8523563742637634,
				0.7859534025192261,
				3.112776756286621
			],
			"min":[
				-0.8512213826179504,
				0.28485411405563354,
				0.9185820817947388
			],
			"type":"VEC3"
		},
		{
			"bufferView":24,
			"componentType":5126,
			"count":42,
			"type":"VEC3"
		},
		{
			"bufferView":25,
			"componentType":5126,
			"count":42,
			"type":"VEC2"
		},
		{
			"bufferView":26,
			"componentType":5126,
			"count":42,
			"max":[
				0.4441252052783966,
				0.7859534025192261,
				3.112776756286621
			],
			"min":[
				-0.8512213826179504,
				0.2833447754383087,
				0.8902329802513123
			],
			"type":"VEC3"
		},
		{
			"bufferView":27,
			"componentType":5126,
			"count":42,
			"type":"VEC3"
		},
		{
			"bufferView":28,
			"componentType":5126,
			"count":42,
			"type":"VEC2"
		}
	],
	"bufferViews":[
		{
			"buffer":0,
			"byteLength":1572,
			"byteOffset":0,
			"target":34962
		},
		{
			"buffer":0,
			"byteLength":1572,
			"byteOffset":1572,
			"target":34962
		},
		{
			"buffer":0,
			"byteLength":1048,
			"byteOffset":3144,
			"target":34962
		},
		{
			"buffer":0,
			"byteLength":1152,
			"byteOffset":4192,
			"target":34963
		},
		{
			"buffer":0,
			"byteLength":504,
			"byteOffset":5344,
			"target":34962
		},
		{
			"buffer":0,
			"byteLength":504,
			"byteOffset":5848,
			"target":34962
		},
		{
			"buffer":0,
			"byteLength":336,
			"byteOffset":6352,
			"target":34962
		},
		{
			"buffer":0,
			"byteLength":480,
			"byteOffset":6688,
			"target":34963
		},
		{
			"buffer":0,
			"byteLength":504,
			"byteOffset":7168,
			"target":34962
		},
		{
			"buffer":0,
			"byteLength":504,
			"byteOffset":7672,
			"target":34962
		},
		{
			"buffer":0,
			"byteLength":336,
			"byteOffset":8176,
			"target":34962
		},
		{
			"buffer":0,
			"byteLength":1572,
			"byteOffset":8512,
			"target":34962
		},
		{
			"buffer":0,
			"byteLength":1572,
			"byteOffset":10084,
			"target":34962
		},
		{
			"buffer":0,
			"byteLength":1048,
			"byteOffset":11656,
			"target":34962
		},
		{
			"buffer":0,
			"byteLength":504,
			"byteOffset":12704,
			"target":34962
		},
		{
			"buffer":0,
			"byteLength":504,
			"byteOffset":13208,
			"target":34962
		},
		{
			"buffer":0,
			"byteLength":336,
			"byteOffset":13712,
			"target":34962
		},
		{
			"buffer":0,
			"byteLength":504,
			"byteOffset":14048,
			"target":34962
		},
		{
			"buffer":0,
			"byteLength":504,
			"byteOffset":14552,
			"target":34962
		},
		{
			"buffer":0,
			"byteLength":336,
			"byteOffset":15056,
			"target":34962
		},
		{
			"buffer":0,
			"byteLength":1572,
			"byteOffset":15392,
			"target":34962
		},
		{
			"buffer":0,
			"byteLength":1572,
			"byteOffset":16964,
			"target":34962
		},
		{
			"buffer":0,
			"byteLength":1048,
			"byteOffset":18536,
			"target":34962
		},
		{
			"buffer":0,
			"byteLength":504,
			"byteOffset":19584,
			"target":34962
		},
		{
			"buffer":0,
			"byteLength":504,
			"byteOffset":20088,
			"target":34962
		},
		{
			"buffer":0,
			"byteLength":336,
			"byteOffset":20592,
			"target":34962
		},
		{
			"buffer":0,
			"byteLength":504,
			"byteOffset":20928,
			"target":34962
		},
		{
			"buffer":0,
			"byteLength":504,
			"byteOffset":21432,
			"target":34962
		},
		{
			"buffer":0,
			"byteLength":336,
			"byteOffset":21936,
			"target":34962
		}
	],
	"buffers":[
		{
			"byteLength":22272,
			"uri":"data:application/octet-stream;base64,"
		}
	]
}
